<?xml version="1.0" standalone="no"?>
<!DOCTYPE svg PUBLIC "-//W3C//DTD SVG 20010904//EN"
 "http://www.w3.org/TR/2001/REC-SVG-20010904/DTD/svg10.dtd">
<svg version="1.0" xmlns="http://www.w3.org/2000/svg"
 width="1920.000000pt" height="1920.000000pt" viewBox="0 0 1920.000000 1920.000000"
 preserveAspectRatio="xMidYMid meet">
<metadata>
Created by potrace 1.11, written by Peter Selinger 2001-2013
</metadata>
<g transform="translate(0.000000,1920.000000) scale(0.100000,-0.100000)"
fill="#000000" stroke="none">
<path d="M9325 14314 c-5 -2 -68 -8 -140 -14 -180 -14 -253 -24 -480 -65 -88
-15 -180 -35 -260 -56 -22 -6 -56 -15 -75 -20 -76 -19 -323 -95 -357 -110 -46
-19 -69 -27 -103 -39 -19 -7 -49 -19 -67 -26 -17 -8 -34 -14 -37 -14 -17 0
-406 -184 -446 -210 -14 -9 -54 -33 -90 -52 -115 -62 -143 -79 -285 -173 -170
-113 -231 -158 -405 -300 -203 -165 -562 -529 -700 -710 -14 -18 -45 -59 -70
-91 -67 -87 -188 -264 -265 -388 -254 -412 -473 -949 -574 -1406 -61 -278 -78
-390 -111 -735 -7 -75 -10 -1676 -10 -4974 l0 -4863 123 6 c67 2 142 7 167 11
79 10 249 43 310 60 25 7 65 18 90 25 25 7 54 16 65 20 11 5 63 25 115 45 302
117 557 284 794 519 68 67 149 155 182 196 58 72 154 207 154 215 0 2 12 23
28 47 15 24 33 52 39 63 28 44 122 245 153 325 33 86 64 184 81 253 24 99 30
132 49 261 19 135 20 189 20 1732 0 1058 3 1595 10 1599 6 3 22 -2 38 -13 31
-22 197 -107 352 -180 246 -116 599 -238 868 -301 422 -98 785 -137 1192 -127
353 8 477 21 815 81 141 25 285 59 440 106 133 39 230 70 255 81 33 14 57 23
100 38 19 7 49 19 67 26 17 8 34 14 37 14 7 0 67 26 186 82 182 86 236 113
270 133 19 12 60 35 90 52 113 62 138 77 275 168 170 113 231 158 405 300 203
165 562 529 700 710 14 18 46 60 72 93 286 369 555 879 709 1347 142 430 196
698 240 1200 12 139 6 584 -10 755 -24 242 -72 523 -122 715 -6 22 -15 56 -20
75 -19 76 -95 323 -110 358 -19 45 -27 68 -39 102 -7 19 -19 49 -26 67 -8 17
-14 34 -14 37 0 7 -26 67 -82 186 -90 192 -112 236 -128 260 -9 14 -33 54 -52
90 -62 115 -79 143 -173 285 -112 170 -158 231 -299 405 -164 201 -530 562
-711 700 -18 14 -59 45 -91 70 -370 288 -874 554 -1344 710 -270 89 -320 102
-595 158 -216 43 -291 53 -590 82 -104 9 -588 13 -610 4z m428 -2374 c155 -12
268 -30 425 -67 63 -14 228 -65 270 -83 12 -6 32 -14 45 -20 82 -35 139 -60
182 -81 77 -36 252 -145 334 -208 40 -31 85 -65 100 -75 39 -29 302 -295 336
-340 17 -22 48 -62 69 -90 71 -92 152 -226 216 -356 25 -51 36 -75 74 -162 20
-46 65 -176 76 -218 4 -19 15 -60 23 -90 59 -227 85 -503 68 -722 -11 -136
-16 -174 -42 -320 -20 -108 -76 -308 -109 -385 -45 -105 -77 -177 -101 -228
-36 -77 -145 -252 -208 -334 -31 -40 -65 -85 -75 -100 -29 -39 -295 -302 -340
-336 -22 -17 -62 -48 -90 -69 -113 -88 -290 -190 -448 -260 -21 -9 -53 -22
-70 -30 -67 -29 -253 -88 -338 -106 -30 -6 -71 -16 -90 -20 -65 -16 -174 -29
-325 -41 -212 -15 -438 6 -725 70 -47 10 -218 65 -257 81 -13 6 -33 14 -45 20
-83 35 -140 60 -183 81 -77 36 -252 145 -334 208 -40 31 -85 65 -100 75 -39
29 -302 295 -336 340 -17 22 -48 62 -69 90 -88 113 -190 290 -260 449 -9 20
-22 52 -30 70 -29 66 -88 252 -106 337 -6 30 -16 71 -20 90 -16 65 -29 174
-41 325 -15 212 6 438 70 725 10 47 65 218 81 258 6 12 14 32 20 45 35 82 60
139 81 182 36 77 145 252 208 334 31 40 65 85 75 100 29 39 295 302 340 336
22 17 62 48 90 69 92 71 226 152 356 216 51 25 75 36 163 74 179 78 418 135
677 160 175 17 217 18 363 6z"/>
</g>
</svg>
